<?xml version="1.0" encoding="utf-8"?>
<!-- Generator: Adobe Illustrator 27.3.1, SVG Export Plug-In . SVG Version: 6.00 Build 0)  -->
<svg version="1.1" id="Layer_2" xmlns="http://www.w3.org/2000/svg" xmlns:xlink="http://www.w3.org/1999/xlink" x="0px" y="0px"
	 viewBox="0 0 59 59" style="enable-background:new 0 0 59 59;" xml:space="preserve">
<style type="text/css">
	.st0{fill:#A3717A;}
	.st1{fill:#FF6F84;}
	.st2{fill:none;stroke:#581F28;stroke-width:1.3078;}
	.st3{fill:#581F28;}
	.st4{fill:#FFFFFF;}
</style>
<path class="st0" d="M56.3,28.7C54.6,14.2,41.4,3.9,26.8,5.6C12.2,7.3,1.7,20.4,3.4,34.9S18.3,59.7,32.9,58
	C47.5,56.3,58,43.2,56.3,28.7z"/>
<g>
	<ellipse transform="matrix(0.9933 -0.1159 0.1159 0.9933 -3.139 3.6244)" class="st1" cx="29.6" cy="28.8" rx="26" ry="25.7"/>
	<path class="st2" d="M26.6,2.6c14.6-1.7,27.8,8.6,29.5,23.1c1.7,14.5-8.8,27.6-23.4,29.3C18.1,56.7,4.9,46.4,3.2,31.9
		S12,4.3,26.6,2.6z"/>
</g>
<path class="st3" d="M28.4,33.6l-0.5,0.3l-0.2,4L26.5,38l-0.1,1.9l7.8-0.7l-0.6-1.9l-1,0.1l-1.1-4.2L31,33.5l0.5,4l-0.8,0.1L30,33.9
	L29.5,34l0.3,3.7l-0.9,0.1L28.4,33.6 M21.4,30.9l-0.3,1.7l5.3,2.6l0.1-1.8L21.4,30.9 M27.9,30.8l0.4,1.7l1.2-1.9l1.2,1.8
	c0.1-0.2,0.5-0.5,1.1-0.7l0.1-1.2c-0.7-0.3-1.6-0.8-2.6-1.3C29,29.6,28.6,30.1,27.9,30.8 M27.6,23.9l-2.7,0.4L23.2,27l1.7,2.9
	l3.2-0.5l1.1-2.3L27.6,23.9z M32.7,29.2l2.4-1l0.6-2.6l-2-2.1L31.1,24L30,27.2L32.7,29.2z M38.5,29.3l-5.6,4l0.5,1.6l5.6-4
	L38.5,29.3L38.5,29.3z"/>
<path class="st4" d="M32.8,33.2l5.6-4l0.3-0.2l-2.2-7.3c-2-1.1-4.4-2.1-7.2-3c-1.8,0.9-4.2,2-7.1,3.4l-1.5,8.5l0.5,0.2l5.1,2.5
	l-0.1,1.8l-0.1,2.7l1.4-0.1l0.2-4l0.5-0.3l0.4,4.1l0.9-0.1l-0.3-3.7l0.5-0.1l0.7,3.7l0.8-0.1l-0.5-4l0.5-0.3l1.1,4.2l1.5-0.1
	L33,34.7L32.8,33.2 M35.1,28.1l-2.4,1l-2.7-2l1.1-3.1l2.6-0.5l2,2.1L35.1,28.1z M24.9,24.2l2.7-0.4l1.6,3.2l-1.1,2.3l-3.2,0.5
	l-1.7-2.9L24.9,24.2z M28.3,32.4l-0.4-1.7c0.7-0.7,1.1-1.2,1.4-1.5c1,0.5,1.8,0.9,2.6,1.3l-0.1,1.2c-0.6,0.2-1,0.4-1.1,0.7l-1.2-1.8
	L28.3,32.4L28.3,32.4z"/>
<g id="Layer_2_copy_2_00000073698024058882006710000003675608293122534283_">
	<g>
		<path class="st3" d="M18.5,43c0.2-0.3,0.3-0.6,0.4-0.9c0.1-0.3,0.1-0.6,0-0.9c-0.1-0.3-0.2-0.5-0.3-0.7c-0.2-0.2-0.4-0.5-0.8-0.8
			s-0.9-0.7-1.3-1.1c-0.2-0.2-0.4-0.3-0.6-0.3s-0.4,0.1-0.7,0.4c-1.4,1.4-2.7,2.7-4.1,4.1c-0.2,0.2-0.3,0.4-0.3,0.7
			c0,0.2,0.1,0.4,0.3,0.6c0.2,0.2,0.4,0.3,0.6,0.3c0.2,0,0.4-0.1,0.6-0.4c0.5-0.5,0.9-1.1,1.4-1.6c0.4,0.3,0.7,0.6,1.1,0.9
			c0.8,0.6,1.5,0.8,2.1,0.8C17.6,44,18.1,43.6,18.5,43z M17.3,42.2c-0.2,0.2-0.3,0.4-0.5,0.4c-0.2,0.1-0.4,0.1-0.7,0
			c-0.2-0.1-0.5-0.2-0.8-0.5c-0.3-0.2-0.5-0.4-0.8-0.7c0.5-0.6,1-1.2,1.5-1.7c0.2,0.2,0.5,0.4,0.7,0.6c0.5,0.4,0.7,0.7,0.8,1
			C17.6,41.7,17.5,42,17.3,42.2z"/>
		<path class="st3" d="M24.7,43.5c-0.4-0.4-0.8-0.7-1.4-0.9c-0.4-0.2-0.9-0.2-1.3-0.2s-0.8,0.1-1.2,0.3c-0.4,0.2-0.8,0.5-1.1,0.8
			c-0.4,0.4-0.7,0.8-0.9,1.3c-0.3,0.5-0.4,1-0.5,1.5s0,1,0.1,1.5c0.2,0.5,0.4,0.9,0.8,1.3c0.4,0.4,0.9,0.7,1.6,0.9
			c0.6,0.2,1.2,0.3,1.8,0.3c0.5,0,1-0.2,1.4-0.5s0.7-0.6,1-1.1c0.2-0.4,0.4-0.9,0.5-1.5c0.1-0.8,0.1-1.5,0-2.1
			C25.3,44.4,25.1,43.9,24.7,43.5z M24,46.8c-0.1,0.6-0.4,1-0.7,1.4c-0.3,0.3-0.6,0.6-1,0.6c-0.4,0.1-0.8,0.1-1.2-0.1
			c-0.3-0.1-0.6-0.3-0.8-0.5c-0.2-0.2-0.4-0.5-0.5-0.7c-0.1-0.3-0.1-0.6-0.1-1s0.1-0.7,0.3-1.1c0.2-0.4,0.4-0.7,0.6-1
			s0.5-0.5,0.7-0.6s0.5-0.2,0.7-0.2c0.3,0,0.5,0,0.7,0.1c0.3,0.1,0.6,0.3,0.8,0.6c0.2,0.3,0.3,0.6,0.4,1.1
			C24,45.9,24.1,46.3,24,46.8z"/>
		<path class="st3" d="M32.5,49.3c-0.2-0.3-0.5-0.6-0.8-0.8s-0.5-0.5-0.8-0.6c0.6-0.2,1.1-0.5,1.3-0.8c0.3-0.4,0.3-0.8,0.3-1.4
			c0-0.3-0.1-0.5-0.2-0.8s-0.3-0.4-0.4-0.6c-0.2-0.2-0.4-0.3-0.6-0.4c-0.2-0.1-0.3-0.1-0.5-0.1s-0.4,0-0.7,0c-0.7,0-1.3,0-2-0.1
			c-0.3,0-0.5,0-0.6,0.2c-0.1,0.1-0.2,0.4-0.3,0.7c-0.2,1.9-0.5,3.8-0.7,5.7c0,0.3,0,0.5,0.1,0.7s0.3,0.3,0.6,0.3
			c0.3,0,0.5,0,0.6-0.2c0.2-0.1,0.3-0.4,0.3-0.7c0-0.8,0.1-1.6,0.1-2.4c0.2,0,0.3,0,0.5,0c0.3,0,0.5,0,0.7,0.1s0.3,0.2,0.5,0.4
			s0.4,0.5,0.6,0.8s0.5,0.7,0.7,1c0.2,0.2,0.3,0.4,0.4,0.5s0.2,0.2,0.4,0.3c0.1,0.1,0.3,0.1,0.5,0.1s0.6-0.3,0.7-0.4
			s0.1-0.2,0.1-0.3C33.3,50.1,32.7,49.6,32.5,49.3z M30.5,46.9C30.3,47,30,47,29.6,47s-0.9,0-1.3,0c0-0.7,0.1-1.4,0.1-2.1
			c0.4,0,0.8,0,1.2,0c0.4,0,0.7,0,0.9,0.1c0.2,0.1,0.3,0.2,0.4,0.3c0.1,0.2,0.2,0.3,0.2,0.5c0,0.3,0,0.5-0.1,0.6
			C30.9,46.7,30.7,46.8,30.5,46.9z"/>
		<path class="st3" d="M41.5,40.8c-0.2-0.3-0.4-0.4-0.6-0.4c-0.2,0-0.4,0.1-0.6,0.2c-0.1,0.1-0.2,0.1-0.3,0.2
			c-0.2,0.1-0.3,0.2-0.4,0.3c-0.1,0.1-0.1,0.2-0.1,0.4c0,0.1,0.1,0.4,0.2,0.7c0.4,1.4,0.7,2.7,1,4.1c-1-1.1-1.9-2.1-2.7-3.3
			c-0.2-0.2-0.3-0.4-0.4-0.5c-0.1-0.1-0.2-0.2-0.3-0.2s-0.3,0-0.5,0.1c-0.1,0-0.2,0.1-0.4,0.1c-0.2,0.1-0.4,0.2-0.5,0.3
			c-0.1,0.2-0.1,0.4,0,0.7c0.6,1.9,1.2,3.8,1.8,5.7c0.1,0.3,0.2,0.5,0.4,0.5c0.2,0.1,0.4,0.1,0.6,0c0.2-0.1,0.4-0.2,0.5-0.4
			s0.1-0.4,0-0.7c-0.6-1.6-1.3-3.2-1.9-4.8c0.9,1.4,1.9,2.7,2.9,4c0.1,0.1,0.2,0.2,0.3,0.4c0.1,0.1,0.2,0.2,0.3,0.3s0.3,0.1,0.4,0.1
			c0.2,0,0.3,0,0.5-0.1s0.4-0.3,0.5-0.4c0.1-0.2,0.1-0.3,0.1-0.5s-0.1-0.4-0.1-0.7c-0.4-1.6-0.9-3.2-1.4-4.7
			c0.9,1.5,1.8,2.9,2.8,4.4c0.2,0.2,0.3,0.4,0.5,0.4s0.4,0,0.6-0.1c0.2-0.1,0.3-0.3,0.4-0.5c0-0.2,0-0.4-0.2-0.7
			C43.8,44.1,42.7,42.5,41.5,40.8z"/>
		<path class="st3" d="M43.8,38.9c-0.2-0.2-0.4-0.3-0.6-0.4c-0.2,0-0.4,0-0.5,0.2c-0.1,0.1-0.2,0.3-0.2,0.5s0.1,0.4,0.3,0.6
			c1.3,1.5,2.5,3,3.8,4.5c0.2,0.2,0.4,0.4,0.6,0.4c0.2,0,0.4-0.1,0.6-0.2c0.2-0.2,0.3-0.4,0.3-0.6c0-0.2-0.1-0.5-0.3-0.7
			C46.5,41.7,45.2,40.3,43.8,38.9z"/>
		<path class="st3" d="M42,36.8c-0.1,0.1-0.3,0.2-0.4,0.4c-0.1,0.1-0.2,0.2-0.2,0.3s0,0.3,0.1,0.5c0,0.1,0.1,0.3,0.1,0.4
			c0,0.2,0.1,0.3,0.1,0.3c0.1,0.1,0.1,0.1,0.2,0c0.1-0.1,0.2-0.3,0.3-0.5c0-0.1,0-0.2,0-0.5c0-0.2,0-0.5,0-0.7s-0.1-0.4-0.1-0.4
			C42.1,36.7,42.1,36.7,42,36.8z"/>
		<path class="st3" d="M12.1,23.1c0.1,0.1,0.2,0.1,0.3,0.2c0.2,0.1,0.3,0.1,0.5,0s0.3-0.2,0.4-0.3c0.1-0.2,0.1-0.3,0-0.5
			c-0.1-0.1-0.2-0.4-0.5-0.7c-0.2-0.3-0.4-0.5-0.6-0.8c0.5-0.8,1.1-1.6,1.7-2.4c0.3,0.1,0.6,0.2,0.9,0.4c0.1,0,0.2,0.1,0.4,0.2
			s0.3,0.1,0.4,0.1c0.1,0,0.2,0,0.3,0s0.2-0.1,0.2-0.1c0.1-0.1,0.2-0.3,0.2-0.5s-0.1-0.3-0.2-0.5c-0.1-0.1-0.4-0.3-0.7-0.4
			c-1.6-0.7-3.2-1.3-4.9-1.8c-0.3-0.1-0.5-0.1-0.6-0.2c-0.2,0-0.3-0.1-0.5-0.1s-0.3,0-0.5,0.1S8.6,16,8.4,16.2
			c-0.2,0.2-0.2,0.4-0.3,0.6c0,0.2,0,0.4,0,0.5c0,0.2,0.1,0.3,0.2,0.5c0.1,0.2,0.2,0.3,0.3,0.5c1,1.5,2,3,3.2,4.3
			C11.9,22.9,12,23,12.1,23.1z M9.6,17.3c1.1,0.3,2.2,0.6,3.2,0.9c-0.5,0.6-0.9,1.2-1.3,1.8C10.8,19.2,10.2,18.3,9.6,17.3z"/>
		<path class="st3" d="M16.7,17.2c0.2,0.2,0.4,0.4,0.6,0.4s0.4,0,0.5-0.1S18,17.2,18,17s-0.1-0.4-0.3-0.7c-0.5-0.6-1-1.3-1.5-1.9
			c0.1-0.1,0.3-0.2,0.4-0.3c0.2-0.2,0.4-0.2,0.6-0.3c0.2,0,0.4,0,0.6,0.1s0.5,0.2,0.9,0.4c0.3,0.2,0.7,0.4,1,0.6
			c0.2,0.1,0.4,0.3,0.5,0.3c0.1,0.1,0.2,0.1,0.4,0.2c0.1,0,0.2,0,0.4-0.1c0.1-0.1,0.2-0.1,0.2-0.2c0.1-0.1,0.1-0.2,0.1-0.3
			s0-0.2-0.1-0.3c0-0.1-0.2-0.2-0.3-0.4c-0.2-0.2-0.4-0.4-0.7-0.6c-0.3-0.2-0.6-0.4-0.9-0.5s-0.7-0.2-1-0.2c0.5-0.4,0.8-0.9,0.9-1.3
			c0.1-0.4,0.1-0.9-0.2-1.4c-0.1-0.2-0.3-0.5-0.5-0.6c-0.2-0.2-0.4-0.3-0.7-0.4C17.5,9,17.3,9,17,9c-0.2,0-0.5,0.1-0.7,0.2
			c-0.3,0.1-0.5,0.3-0.9,0.5c-0.8,0.5-1.6,1.1-2.3,1.7c-0.3,0.2-0.5,0.5-0.5,0.7s0.1,0.5,0.3,0.7C14.2,14.3,15.4,15.8,16.7,17.2z
			 M15.6,11.1c0.5-0.3,0.8-0.5,1-0.5s0.4,0,0.6,0.1s0.3,0.2,0.4,0.4s0.2,0.4,0.1,0.6c0,0.2-0.2,0.4-0.3,0.6
			c-0.2,0.2-0.4,0.4-0.7,0.6c-0.4,0.3-0.8,0.5-1.1,0.8c-0.4-0.6-0.8-1.1-1.2-1.7C14.8,11.6,15.2,11.3,15.6,11.1z"/>
		<path class="st3" d="M27.4,12.9c0-0.1-0.1-0.3-0.2-0.5s-0.3-0.5-0.5-0.8S26.3,11,26,10.8c-0.3-0.2-0.5-0.4-0.8-0.5
			c0.6-0.3,1-0.6,1.2-0.9C26.7,9,26.8,8.6,26.8,8c0-0.3-0.1-0.5-0.2-0.8C26.4,7,26.2,6.8,26,6.7c-0.2-0.2-0.5-0.3-0.7-0.3
			c-0.2-0.1-0.5-0.1-0.8,0c-0.3,0-0.6,0.1-1,0.2c-0.9,0.2-1.8,0.5-2.7,0.8c-0.3,0.1-0.6,0.3-0.7,0.5s-0.1,0.4,0,0.8
			c0.7,1.8,1.4,3.6,2.1,5.4c0.1,0.3,0.2,0.5,0.4,0.6c0.2,0.1,0.3,0.1,0.5,0.1c0.2-0.1,0.3-0.2,0.3-0.4c0.1-0.2,0-0.4-0.1-0.7
			c-0.2-0.8-0.5-1.5-0.7-2.3c0.2-0.1,0.3-0.1,0.5-0.1c0.2-0.1,0.5-0.1,0.6-0.1c0.2,0,0.4,0.1,0.6,0.3s0.4,0.4,0.7,0.7
			c0.2,0.3,0.5,0.6,0.7,0.9c0.2,0.2,0.3,0.4,0.4,0.5s0.2,0.2,0.3,0.3C27,14.4,27.8,13.6,27.4,12.9z M25.1,9
			c-0.1,0.2-0.3,0.3-0.5,0.4c-0.2,0.1-0.5,0.2-0.9,0.3s-0.9,0.2-1.3,0.4c-0.2-0.7-0.4-1.3-0.6-2c0.5-0.2,1-0.3,1.5-0.4
			s0.9-0.2,1.1-0.1c0.2,0,0.4,0.1,0.5,0.3C25,8,25.1,8.2,25.2,8.4C25.2,8.6,25.2,8.8,25.1,9z"/>
		<path class="st3" d="M34.3,6.1c-0.3,0-0.5,0-0.6,0.1c-0.2,0.1-0.3,0.3-0.3,0.7c-0.2,1.2-0.4,2.5-0.6,3.7c-0.1,0.6-0.3,1.1-0.5,1.4
			c-0.3,0.3-0.6,0.4-1.1,0.4c-0.4,0-0.6-0.1-0.8-0.3c-0.2-0.2-0.3-0.4-0.4-0.7s-0.1-0.6-0.1-1.1c0-1.2,0-2.5,0-3.7
			c0-0.3-0.1-0.5-0.2-0.7c-0.2-0.2-0.4-0.2-0.6-0.2c-0.3,0-0.5,0.1-0.6,0.3c-0.1,0.2-0.2,0.4-0.2,0.7c0.1,1.2,0.1,2.4,0.2,3.6
			c0,0.6,0.1,1.1,0.2,1.5s0.3,0.7,0.5,1s0.5,0.4,0.8,0.6c0.3,0.1,0.7,0.2,1.2,0.2c0.4,0,0.7,0,1-0.1c0.3-0.1,0.6-0.2,0.9-0.4
			c0.3-0.2,0.6-0.5,0.7-0.9c0.2-0.4,0.3-0.8,0.5-1.4c0.3-1.2,0.5-2.4,0.8-3.5c0.1-0.3,0-0.5-0.1-0.7C34.7,6.2,34.5,6.1,34.3,6.1z"/>
		<path class="st3" d="M36.4,13.7c0.7-1.8,1.4-3.7,2.1-5.5c0.1-0.3,0.1-0.5,0-0.7S38.3,7.1,38,7c-0.2-0.1-0.5-0.1-0.7,0
			C37.2,7.2,37,7.4,37,7.7c-0.6,1.9-1.2,3.8-1.7,5.7c-0.1,0.3-0.1,0.5,0,0.7s0.2,0.3,0.3,0.4c0.2,0.1,0.3,0,0.5-0.1
			C36.2,14.2,36.3,14,36.4,13.7z"/>
		<path class="st3" d="M37.8,15.1c0,0.2,0.1,0.3,0.3,0.4c0.2,0.1,0.3,0.1,0.5,0s0.3-0.2,0.5-0.5c0.7-1.3,1.4-2.6,2.1-3.9
			c0.2,1.8,0.1,3.5-0.1,5.1c0,0.1,0,0.3,0,0.4s0,0.3,0,0.4s0,0.2,0.1,0.3c0,0.1,0.1,0.2,0.2,0.2c0.3,0.3,0.7,0.2,1.2-0.3
			c1.3-1.5,2.6-3,3.9-4.5c0.2-0.2,0.3-0.4,0.3-0.6c0-0.2-0.1-0.4-0.3-0.6c-0.2-0.2-0.4-0.2-0.6-0.2c-0.2,0-0.4,0.2-0.6,0.4
			c-0.9,1.2-1.8,2.4-2.7,3.5c0.2-1.7,0.2-3.5,0-5.3c0-0.2,0-0.3,0-0.5c0-0.1,0-0.3-0.1-0.4c0-0.1-0.1-0.2-0.2-0.3
			c-0.1-0.1-0.2-0.2-0.3-0.2c-0.2-0.1-0.4-0.1-0.6-0.1c-0.2,0-0.4,0.1-0.5,0.2c-0.1,0.1-0.2,0.3-0.3,0.5c-0.8,1.7-1.7,3.5-2.5,5.2
			C37.8,14.7,37.7,14.9,37.8,15.1z"/>
		<path class="st3" d="M51,16.9c0-0.2-0.1-0.4-0.3-0.6s-0.3-0.4-0.5-0.4c-0.2-0.1-0.3-0.1-0.5-0.1s-0.4,0-0.6,0.1
			C48.9,16,48.7,16,48.6,16c-1.7,0.5-3.4,1.1-4.9,1.9c-0.2,0.1-0.3,0.2-0.4,0.2c-0.1,0.1-0.2,0.1-0.3,0.2s-0.2,0.3-0.2,0.5
			s0,0.3,0.2,0.5c0.1,0.1,0.3,0.2,0.4,0.2c0.2,0,0.4-0.1,0.8-0.3c0.3-0.1,0.6-0.3,0.9-0.4c0.6,0.7,1.2,1.5,1.7,2.4
			c-0.2,0.3-0.4,0.5-0.6,0.8c-0.1,0.1-0.2,0.2-0.3,0.3c-0.1,0.1-0.2,0.2-0.2,0.3c0,0.1-0.1,0.2-0.1,0.3c0,0.1,0,0.2,0.1,0.3
			c0.1,0.2,0.2,0.3,0.4,0.3c0.2,0.1,0.4,0,0.5,0c0.1-0.1,0.4-0.3,0.6-0.6c1.1-1.3,2.2-2.8,3.1-4.3c0.1-0.2,0.3-0.4,0.3-0.5
			c0.1-0.1,0.1-0.3,0.2-0.5C51,17.2,51,17.1,51,16.9z M47.6,20c-0.4-0.6-0.9-1.3-1.3-1.8c1-0.4,2.1-0.7,3.2-1
			C48.8,18.2,48.2,19.1,47.6,20z"/>
	</g>
</g>
</svg>
