<?xml version="1.0" encoding="utf-8"?>
<!-- Generator: Adobe Illustrator 24.1.1, SVG Export Plug-In . SVG Version: 6.00 Build 0)  -->
<svg version="1.1" id="Layer_1" xmlns="http://www.w3.org/2000/svg" xmlns:xlink="http://www.w3.org/1999/xlink" x="0px" y="0px"
	 viewBox="0 0 1695.7 945.7" style="enable-background:new 0 0 1695.7 945.7;" xml:space="preserve">
<style type="text/css">
	.st0{fill-rule:evenodd;clip-rule:evenodd;}
	.st1{fill-rule:evenodd;clip-rule:evenodd;fill:#020202;}
	.st2{fill-rule:evenodd;clip-rule:evenodd;fill:#EA803C;}
	.st3{fill-rule:evenodd;clip-rule:evenodd;fill:#533F8B;}
	.st4{fill-rule:evenodd;clip-rule:evenodd;fill:#5D9A83;}
	.st5{fill:none;stroke:#FB7C85;stroke-width:13;stroke-miterlimit:10;}
	.st6{fill:none;stroke:#4177B3;stroke-width:13;stroke-miterlimit:10;}
	.st7{fill-rule:evenodd;clip-rule:evenodd;fill:#EE2A74;}
</style>
<g transform="matrix(1.0, 0.0, 0.0, 1.0, 0.0, 0.0)">
	<path class="st0" d="M275.3,397.8c0.7,7.5-0.3,15.2-2.7,22.5c-2.1,7.5-5.8,14.5-10.7,20.7c-10,12.8-23.2,20.4-39,22.5
		c-0.7,0-1.4,0-1.7,0c-1.4,0-2.4,0.3-3.8,0.3c-5.8,0-12.1,0-18.6,0c-5.5,0-11.8,0.3-18.6,0.3c-6.9,0.3-13.5,0.7-20.4,1
		c-6.3,0.3-12.1,1-17.6,1.7c-4.8,0.7-9.6,1.4-14.2,2.7v-1.7c5.5-0.7,10-3.1,13.5-7.5c0,0,0.3-0.3,0.3-0.7l0.7-1
		c3.8-5.8,5.8-12.1,6.9-19c1.4-8.3,1.7-16.9,1.4-25.2c-0.3-9.4-0.7-19-1.7-28.3c-0.7-11.4-1.7-23.2-3.1-34.8
		c-1-10.7-2.7-21.1-5.1-31.7c-1.7-8.3-4.8-15.9-9.6-22.7c-2.4-4.1-6.3-6.9-11.1-8c-1.7-0.3-3.5-0.7-5.1-0.3v-2.1
		c13.1,0.3,25.9,0.3,38.6,0c12.8-0.3,24.9-1,36.5-1.7c7.5-0.7,14.8-1,21.4-1.7c6.5-0.7,12.4-1,17.6-1.4l9.4,1.7
		c8.3,2.1,14.2,5.1,17.6,9.6c3.8,4.8,5.5,10.4,5.5,16.2c0.3,4.8,0,9.4-0.7,13.8c-1,4.8-2.7,9.4-5.5,13.5c-3.5,4.8-7.3,9-12.1,12.1
		c-6.3,4.5-13.1,7.5-20.4,9.6c7.5,0.3,14.8,1.4,22.1,2.7c5.8,1,11.1,2.7,16.2,6.3c4.5,2.7,8,6.9,10.4,11.8
		C273.6,384.7,275,391.3,275.3,397.8L275.3,397.8 M242.5,412c-0.3-6.9-1.4-14.2-2.4-21.1c-1-5.8-2.7-11.4-5.5-16.6
		c-2.4-4.5-5.5-8-10-10.4c-4.8-2.7-10.4-3.8-15.9-3.1l-33.5,2.4c0.3,7.3,0.3,14.2,0.7,20.4c0.3,6.3,0.7,12.1,1,17.2
		c1,12.4,1.7,22.7,3.1,30.4c1,6.3,2.1,12.1,3.5,18.3c0.7,3.8,2.1,7.5,3.8,11.1l19.6-1.4c13.8-1,23.8-5.1,29.3-12.4
		C241.4,439.7,243.6,427.9,242.5,412L242.5,412 M233.5,324.4c-1-13.8-4.5-23.8-10.4-30c-5.8-6.3-14.8-8.6-26.6-8l-21.7,1.7
		c-1.4,0.7-2.1,3.1-2.4,7.3c-0.7,5.1-0.7,10.7-0.7,15.9c0,7.3,0.3,17.2,1.4,30.4l0.7,9.4c0.3,3.5,0.7,6.9,1,10.4l15.9-1
		c8.3-0.7,15.2-1.4,20.7-2.1c4.8-0.3,9.6-2.1,13.8-4.8c3.8-2.4,6.3-5.8,7.3-10.4S233.9,332.3,233.5,324.4L233.5,324.4"/>
	<path class="st0" d="M408.9,452c-1.7,0.7-3.8,1.4-5.1,1.7c-1.7,0.3-3.5,0.7-5.1,1c-7.5,0.7-14.2-1.4-19.6-6.3c0,0-0.3,0-0.3-0.3
		c-6.9-5.8-12.4-12.8-16.6-21.1c-7.3,20.4-18.3,31.4-33.1,32.5c-4.8,0.7-9.6-0.3-14.2-2.7c-4.5-2.1-8-5.1-11.1-9
		c-3.1-4.1-5.8-8.6-7.5-13.5c-2.1-5.1-3.1-10.7-3.5-16.2c-0.7-6.5,0-12.8,1.7-19c1.4-6.5,4.1-12.4,8-17.6c3.8-5.5,9-10,14.8-13.1
		c6.9-3.8,14.5-6.3,22.7-6.3c2.1,0,4.1-0.3,6.5-0.3c2.1,0,4.5,0,6.9,0.3c0.3-6.3,1-12.8,1.4-19c0.7-5.8,0.7-12.1,0.3-17.9
		c-0.3-3.5-0.7-6.9-1.7-10.4c-1-3.1-2.7-5.8-4.8-8.3c-2.4-2.4-5.1-4.1-8.3-5.1c-4.1-1.4-8.3-1.7-12.8-1.4H327
		c-2.7,0.3-5.5,1.4-7.5,3.1c-2.7,2.1-4.8,4.5-6.5,7.3c-1.7,2.7-3.5,5.5-4.5,8.6c-1,2.7-1.7,5.5-1.4,8.6c0,2.7,1.4,5.1,3.5,7.3l0,0
		l0.3,0.3c2.4,2.1,6.3,2.7,11.8,2.4c0,2.4-0.3,4.5-1,6.5c-1,2.1-2.1,4.1-3.5,5.8c-1.7,1.4-3.5,2.7-5.1,4.1c-1.7,1.4-3.5,1.7-5.5,2.1
		c-2.1,0-3.8,0-5.8-0.7c-4.8-1.4-8.3-4.1-11.1-8.3c-1.4-2.4-2.4-4.8-2.4-7.3c-0.7-5.5,0.3-11.1,2.7-16.2c2.4-5.1,5.5-9.6,9.6-13.5
		c4.5-4.1,9.4-7.5,15.2-9.6c5.8-2.7,12.1-4.1,18.6-4.5c6.3-0.3,12.1-0.3,18.3,0.7c5.5,0.7,10.7,2.7,15.5,5.8
		c4.8,2.7,8.6,6.9,11.1,11.8c3.5,5.8,5.1,12.1,5.5,19v2.7c-1,14.5-1.7,27.3-2.1,38c-0.3,10.7,0,20.4,0.3,28.7
		c0.3,8,1.7,15.9,3.5,23.5c1,5.1,3.1,9.6,5.8,14.2c1.7,3.1,4.1,5.5,7.3,7.3c2.7,1.4,5.5,2.1,8.6,1.7L408.9,452 M353.6,365.4
		c-1.4,0-2.7,0-3.5,0c-1,0-2.1,0-3.1,0c-5.5,0-10.4,1.7-14.5,5.5c-3.8,3.1-6.3,6.9-8,11.8c-1.7,4.8-3.1,10-3.1,15.2
		c-0.3,5.1-0.3,10.7,0,15.9c0.3,4.5,1,9,1.7,13.5c0.7,4.1,2.1,8.3,3.5,12.1c1,3.1,2.7,6.3,5.1,8.6c1.4,1.7,3.1,2.7,5.1,2.7l0,0
		c0.3,0,0.7,0,1.4,0c3.1,0,5.8-1.4,8-3.8c0,0,0.3-0.3,0.3-0.7l0,0l0,0c3.1-2.7,5.1-6.3,5.8-10.4c1.4-5.1,2.1-10.4,2.4-15.5
		c0.3-6.3,0.3-12.8-0.3-19L353.6,365.4"/>
	<path class="st0" d="M481.4,455.8c-2.7,0-5.5-0.3-8.6-0.7c-2.7,0-6.3-0.3-10,0c-3.8,0-8.3,0-13.1,0.3c-4.8,0.3-10,1-15.5,1.7
		c-5.5,0.7-11.4,1.7-17.2,3.1v-3.1c1,0.3,2.1,0.3,3.5,0.3c3.8-0.3,6.5-3.5,8.3-9.4c2.1-7.3,3.1-14.8,3.5-22.5
		c0.7-10,0.7-20.4,0-30.4c-0.3-11.1-1-22.5-1.7-33.5c-0.3-6.9-1-13.5-1.7-20c-0.7-6.3-1-12.1-1.4-17.2c-0.7-8-1.4-15.2-2.1-22.1
		c-0.7-5.8-1.7-11.8-3.5-17.6c-1-4.5-2.7-8.3-5.5-11.8c-1.4-2.1-3.5-3.5-6.3-3.8l0,0c-0.7,0-1.7,0-2.4,0c-1.7,0-3.1,0.3-4.5,1
		l-0.3-4.8c2.7,0.3,5.5,0.7,8.6,0.7c2.7,0,5.5,0.3,9,0.3s6.9,0,10.4-0.3c3.5-0.3,6.9-0.7,10-1.4c3.1-0.8,5.8-1.4,8.6-2.7
		c0,6.9,0,14.8,0.3,23.2c0,7.3,0.3,15.5,1,24.4c0.3,9,1,18.6,1.7,28.7c0.7,8.3,1.4,16.6,2.1,25.5c0.7,8.6,1.7,17.6,3.1,25.9
		c1.4,8.6,2.7,16.6,4.1,24.4c1.4,6.9,2.7,13.5,4.8,20.4c1.4,4.8,3.5,9.4,5.8,13.5c2.1,3.5,4.5,4.8,7.3,4.8c0.3,0,0.7,0,0.7-0.3
		c0.3,0,0.3,0,0.7,0L481.4,455.8"/>
	<path class="st0" d="M619.8,379.6c0.7,7.5,0,15.2-2.4,22.7c-1.7,6.9-4.8,13.5-9.4,19.4c-4.1,5.5-9,10.4-14.8,13.8
		c-5.8,3.8-12.1,5.8-19,6.3c-8,0.7-14.8-0.7-20-4.1s-10.4-9.6-15.5-18.6l1.7,22.1c-3.5-1-7.3-1-10.7-1c-3.8,0-7.5,0-11.1,0.3
		c-3.5,0.3-6.9,0.7-9.6,1c-2.7,0.3-5.1,0.7-8,1.4c-2.4,0.3-4.8,1-7.3,1.4v-2.4c3.8-1.7,6.5-4.1,8.3-7.5c2.4-3.8,3.8-7.5,4.5-12.1
		c1-5.1,1.4-10,1.4-15.2c0-5.5-0.3-11.4-0.7-17.9l-5.5-79.1c-0.3-6.9-1.4-13.5-2.1-20.4c-0.7-6.3-2.1-12.1-3.8-18.3
		c-1-4.8-3.1-9-6.3-13.1c-1.4-2.4-3.5-3.8-6.3-4.1h-0.3c-1,0-1.7-0.3-2.7,0v-1.7c2.4,0.3,4.8,0.3,7.3,0.3c6.3,0.3,12.8,0,19-0.7
		c4.1-0.3,8.3-0.7,12.8-1c4.8-0.7,9.6-1.4,14.5-2.4c-1.4,1.4-2.4,5.1-3.1,11.1c-0.7,6.5-0.7,13.1-0.7,19.6c0,7.5,0.3,15.2,0.7,22.7
		c0.3,8,0.7,14.8,1.4,20.4l1,14.2c1.7-4.1,3.8-8,5.8-11.8c1.7-3.1,4.1-6.3,6.9-8.6c2.7-2.4,5.8-4.1,9.4-5.5
		c4.5-1.4,8.6-2.4,13.5-2.4c6.3-0.7,12.4,0.3,18.6,2.4c6.3,2.4,11.4,5.8,15.5,11.1c5.1,6.3,8.6,13.1,11.1,20.7
		c3.5,10.4,5.1,20.7,5.5,31.4L619.8,379.6 M588.8,366.8c-1.4-16.9-4.5-30-9.6-39.7c-5.1-9.6-12.1-14.5-20-13.8
		c-4.5,0.3-8,2.1-11.1,5.1c-3.8,3.5-6.3,7.3-8,12.1c-2.4,5.5-3.8,11.4-4.1,17.6c-0.7,7.3-1,14.2-0.3,21.4c0.7,9.6,2.1,19.4,4.1,29
		c1.7,7.5,4.1,14.8,7.3,21.7c2.1,5.1,5.1,9.6,9.4,13.5c2.4,2.7,5.5,4.1,9,4.1h0.3h0.7c3.8-0.3,6.9-2.1,9.4-5.1
		c3.5-4.1,6.3-8.6,7.5-14.2c2.4-7.3,4.1-14.5,4.8-21.7C589.8,386.5,589.8,376.8,588.8,366.8L588.8,366.8"/>
	<path class="st0" d="M785.2,415.2c-2.7,0-5.5-0.3-8.6-0.3c-2.7,0-5.8-0.3-9.4-0.3c-3.5,0-7.3,0-11.1,0.3c-3.8,0.3-7.5,0.7-11.4,1.4
		c-3.8,0.7-7.3,1.4-11.1,2.7l-2.1-30.4c-3.1,13.5-7.5,23.5-13.8,30c-5.5,6.5-12.8,10.4-21.4,11.1c-0.3,0-0.7,0-1,0H695
		c-14.2,1-25.2-4.1-33.1-15.2c-7.5-11.1-12.4-29-14.2-53.2l-0.7-11.1c-0.3-4.1-0.7-9.4-1.4-15.2c-0.3-5.8-1.4-12.1-2.1-18.6
		c-1-6.5-2.1-12.8-3.1-19c-1-5.5-2.4-11.1-4.1-16.6c-1.4-4.1-3.1-8-5.5-11.8c-2.1-3.1-4.5-4.5-6.9-4.1h-0.3l-0.3-2.7
		c2.7,0.3,5.5,0.7,8.6,0.7c2.7,0.3,5.8,0.3,8.6,0c3.5,0,6.9-0.3,10.4-0.3c3.5-0.3,7.3-0.7,10.7-1.4c3.5-0.7,6.9-1.4,10-2.7
		l8.6,121.5c1,14.8,3.1,24.9,6.3,31.1c3.1,6.3,8,8.6,14.2,8.3c10.4-0.7,17.9-8,22.7-21.7c4.8-13.5,6.3-32.8,4.5-57.6l-0.3-5.8
		c-0.3-3.5-0.7-7.5-1-12.8c-0.3-5.1-1-10.7-2.1-16.9c-1-5.8-2.1-12.1-3.5-17.9c-1-5.5-2.7-11.1-4.8-16.2c-1.4-4.1-3.5-8-6.3-11.8
		c-1.4-2.1-3.5-3.5-5.8-3.8h-0.3c-0.7,0-1.4,0-2.1,0s-1.4,0.3-1.7,0.3v-2.4c3.5,0.3,6.9,0.3,10.7,0.3c3.1,0,6.5,0.3,10.4,0
		c3.8,0,8,0,11.8-0.3c3.8-0.3,7.5-0.7,11.1-1.4c3.1-0.7,5.8-1.4,8.6-2.7c-0.7,8-1,16.6-1,25.2c0,7.5,0,16.6,0,25.9
		c0,9.6,0.7,19.4,1.4,29.7c0.7,10,1.7,19.6,3.5,29.3c1.4,9,3.1,17.6,5.8,26.2c2.1,6.9,5.1,13.1,9.4,19c2.7,4.5,6.9,7.3,11.8,8.3
		c0.3,0,0.3,0,0.7,0s0.7,0,1,0v3.1"/>
	<path class="st0" d="M1160.7,397.8c-1.7,0.7-3.5,1.4-5.1,1.7c-1.7,0.3-3.5,0.7-5.1,1c-7.5,0.7-14.2-1.4-20-6.3l0,0
		c-6.9-5.8-12.4-12.8-16.6-20.7c-7.3,20.4-18.3,31.4-33.1,32.5c-4.8,0.7-9.6-0.3-14.2-2.7c-4.5-2.1-8-5.1-11.1-9
		c-3.5-4.1-5.8-8.6-7.5-13.5c-2.1-5.1-3.1-10.7-3.5-16.2c-0.3-6.5,0-12.8,1.7-19c1.4-6.5,4.1-12.4,8-17.6c4.1-5.5,9-10,15.2-13.5
		c6.9-3.8,14.5-6.3,22.7-6.3c2.1,0,4.1-0.3,6.5-0.3c2.1,0,4.5,0,6.9,0.3c0.3-6.3,0.7-12.4,1.4-19c0.7-5.8,0.7-12.1,0.3-17.9
		c-0.3-3.5-0.7-6.9-1.7-10.4c-1.4-5.1-4.8-9.4-9.6-11.8c-1-0.7-2.4-1-3.8-1.7c-4.1-1.4-8.3-1.7-12.8-1.4h-0.3
		c-2.7,0.3-5.5,1.4-7.5,3.1c-2.4,2.1-4.8,4.5-6.5,6.9c-2.1,2.7-3.5,5.5-4.5,8.6c-1,2.7-1.4,5.5-1.4,8.6c0,2.7,1,5.1,3.1,6.9l0.3,0.3
		l0.3,0.3c2.4,2.1,6.3,2.7,11.8,2.4c0,2.1-0.3,4.5-1,6.3c-0.7,2.1-2.1,4.1-3.5,5.8c-1.4,1.7-3.1,3.1-4.8,4.5
		c-1.7,1.5-3.5,2.1-5.5,2.1c-2.1,0-4.1,0-5.8-0.7c-2.4-0.7-4.1-1.7-6.3-3.1c-2.1-1.4-3.8-3.1-5.1-5.1c-1.4-2.4-2.1-4.8-2.4-7.3
		c-0.3-5.5,0.3-11.1,2.7-16.2c2.4-5.1,5.5-9.6,9.6-13.5c4.5-4.1,9.4-7.5,15.2-9.6c5.8-2.7,12.1-4.1,18.6-4.5
		c6.3-0.3,12.1-0.3,18.3,0.7c5.5,0.7,10.7,2.7,15.5,5.5c4.8,2.7,8.6,6.9,11.1,11.8c3.5,5.8,5.1,12.1,5.5,19v2.7
		c-1,14.5-1.7,27.3-2.1,38c-0.3,10.7,0,20.4,0.3,28.7c0.3,8,1.7,15.9,3.5,23.5c1.4,5.1,3.1,10,5.8,14.5c1.7,3.1,4.1,5.5,7.3,7.3
		c2.7,1.4,5.5,1.7,8.6,1.7L1160.7,397.8 M1105.4,311.3c-1.4,0-2.4,0-3.5,0s-2.1,0-3.1,0c-5.5,0-10.4,2.1-14.5,5.5
		c-3.8,3.1-6.3,6.9-8,11.8c-1.7,4.8-3.1,10-3.5,15.2c-0.3,5.1-0.3,10.7,0,15.9c0.3,4.5,1,9,1.7,13.5c0.7,4.1,2.1,8.3,3.5,12.1
		c1,3.1,2.7,6.3,5.1,8.6c1.4,1.7,3.1,2.7,5.1,2.7l0,0c0.3,0,0.7,0,1.4,0c3.5,0,6.3-1.4,8.6-3.8v-0.3l0,0l0,0
		c2.7-3.1,4.5-6.5,5.5-10.7c1.4-5.1,2.1-10.4,2.4-15.5c0.3-6.3,0.3-12.8,0-19L1105.4,311.3"/>
	<path class="st0" d="M1204.5,251.1c1.7-6.3,3.8-12.1,6.5-17.9c1.7-3.8,4.1-7.5,7.3-10.4c2.4-2.4,5.5-4.1,8.6-5.1
		c3.5-1,7.3-1.7,10.7-1.7c3.1-0.3,5.8-0.3,9,0c3.5,0.3,6.5,1,9.4,2.4c3.5,1.7,6.5,4.1,9,6.9c3.5,4.1,6.3,8.6,8,13.5
		c2.7,6.9,4.8,14.2,6.3,21.7c2.1,10.7,3.5,21.1,4.1,31.7c0.7,7.5,1,16.2,1,25.5c0,1.4,0,3.1,0,4.5l0.3,4.5
		c0.3,6.3,1.4,12.1,2.4,17.9c1,5.5,2.4,11.1,4.1,16.2c1.4,4.1,3.5,8.3,6.5,11.8c1.7,2.1,3.8,3.5,6.5,3.8c0.3,0,0.3,0,0.7,0
		c0.7,0,1.4,0,2.1,0l0.3,2.7c-2.7-0.3-5.5-0.7-8.6-1c-2.7,0-6.3-0.3-10.4-0.3c-4.5,0-8.6,0-13.1,0.3c-4.8,0.3-10,1-15.5,1.7
		c-5.8,1-11.4,2.1-16.9,3.8v-2.7c3.5-1,6.3-4.1,8.6-9.4c2.7-6.5,4.5-13.1,5.1-20c1.4-9,1.7-17.9,2.1-26.9c0-10,0-19.6-0.7-30
		c-0.7-9.6-1.7-18.6-3.1-27.3c-1-7.5-2.7-14.8-5.1-22.1c-1.7-5.1-4.1-10-7.3-14.8c-2.7-3.5-5.5-5.1-9-5.1
		c-11.8,1-19.4,9.6-22.7,26.2c-3.5,16.6-3.8,42.1-1.4,76.3c0.3,5.8,1,12.4,2.1,19.6c0.7,6.9,2.1,13.5,4.1,20.4
		c1.4,5.5,3.8,10.7,6.9,15.5c2.7,4.1,6.3,6.3,10,5.8l0.3,2.7c-3.5,0-7.3,0-11.8,0c-3.5,0-7.5,0-12.1,0c-4.5,0-9.4,0.3-13.8,0.7
		c-4.8,0.3-9.6,0.7-14.2,1.4c-4.5,0.7-8.6,1.7-12.8,2.7v-2.7c3.8-0.3,6.9-2.1,9.4-5.1l0.3-0.3c0.3-0.7,1-1.4,1.4-2.1
		c2.7-5.1,4.5-10.4,5.1-16.2c1-7.5,1-14.8,1-22.5c-0.3-8.3-0.7-16.9-1.4-25.9c-0.7-10.4-1.7-21.1-3.1-32.1
		c-1.4-10.4-3.1-20.7-5.5-30.7c-1.7-8.3-4.5-15.9-8.3-23.5c-3.1-6.3-6.9-9.4-11.4-9.6l0.7-4.1c3.5,1.4,7.3,2.1,11.1,2.4
		c3.5,0.3,7.3,0.3,10.7,0c3.5-0.3,6.5-0.7,9.6-1.4s5.8-1.4,8.3-2.1c2.7-1,5.1-1.7,7.5-2.7L1204.5,251.1"/>
	<path class="st0" d="M1445.8,375.1c-1.4,0-2.7,0-4.1,0c-1.7,0-3.1,0-4.8,0c-1.7,0-3.5,0-5.5,0.3c-3.1,0.3-6.3,0.7-9.6,1
		c-3.1,0.3-6.3,1.4-9.4,2.4c-2.7,1-5.1,2.1-7.5,3.8c-2.1,1.4-3.8,3.1-4.8,5.5l-2.7-30c-3.1,7.5-7.5,13.8-13.5,19
		c-5.1,4.8-11.4,7.5-18.3,8c-6.5,0.7-13.1-0.7-19-3.5c-6.3-2.7-12.1-6.9-16.6-11.8c-5.1-5.1-9.4-11.1-12.1-17.9
		c-3.5-6.9-5.1-14.5-5.5-22.1c-0.7-8.6,0-17.2,2.1-25.5c1.7-8.6,4.8-16.6,9.4-24.2c3.8-7.3,8.6-13.1,14.8-18.3
		c5.5-4.8,11.8-7.5,19-8c3.5-0.3,6.5,0,10,0.3c3.1,0.3,5.8,1.4,8.6,3.1c3.1,1.7,5.5,3.8,7.5,6.5c2.7,3.5,5.5,6.9,8,10.4
		c0-2.4,0-5.1,0.3-8c0-2.4,0-5.1,0-8.3c0-3.1-0.3-6.5-0.3-10.4c-0.3-5.8-1-11.4-2.1-17.2c-1-5.5-2.4-11.1-4.5-16.2
		c-1.7-4.5-4.1-8.3-7.5-11.8c-2.7-2.7-5.8-4.1-9.6-4.1h-0.3c-0.3,0-1,0-1.4,0l-0.3-3.8c3.5,0.3,6.9,0.3,10.7,0.3c3.1,0,6.3,0.3,10,0
		c3.8,0,7.5-0.3,11.4-0.7c3.8-0.3,7.5-0.7,11.4-1.7c3.1-0.3,5.8-1.4,8.6-2.7c-1,9.4-1.4,19.4-1.7,29.7c-0.3,9-0.3,19-0.3,30.4
		c0,11.4,0.3,22.7,1.4,34.5c0.7,10.7,1.7,21.4,3.5,31.7c1.4,9.4,3.1,18.6,5.5,28c1.7,7.3,4.8,13.8,8.6,20.4c3.5,5.1,7.5,8,12.1,9
		L1445.8,375.1 M1395.1,320.9c-0.3-7.5-1.7-15.5-3.8-22.7c-1.7-6.9-4.1-13.8-7.3-20.4c-2.4-5.5-5.8-10.4-10-14.5
		c-3.8-3.8-8-5.5-12.1-5.1c-3.8,0.3-6.9,1.7-9.6,4.8c0,0-0.3,0-0.3,0.3c-0.3,0.3-0.7,0.7-1,1.4c-3.5,4.8-5.5,10-6.5,15.5
		c-1.7,7.5-2.7,14.8-3.1,22.7c-0.3,9-0.3,18.3,0.3,27.3c1,15.9,4.1,28,9,36.5c4.8,8.6,10.7,12.8,18.3,12.1c0.3,0,0.7,0,0.7,0
		c0.3,0,0.3-0.3,0.7-0.3c8.6-1.7,15.2-7.5,19.6-17.9C1394.3,349.5,1396.1,336.4,1395.1,320.9L1395.1,320.9"/>
	<path class="st0" d="M1567.7,278.4c1,12.4,0.3,25.2-2.4,37.3c-2.1,11.8-5.5,22.7-10.7,33.5c-4.1,9.4-10,17.2-17.2,24.4
		c-6.5,6.3-14.2,10-21.7,10.4c-8.3,0.7-16.2-1-23.2-5.5c-8-4.5-14.5-10.7-20-18.3c-6.3-8.6-11.4-17.9-14.8-28
		c-4.1-11.4-6.5-23.2-7.3-34.8c-1-12.4-0.3-24.4,2.1-36.5c2.1-10.7,5.5-21.1,10.7-30.7c4.5-8.6,10-15.9,17.6-21.7
		c6.5-5.5,13.8-8.6,22.5-9.4c8.3-0.7,15.9,0.7,23.5,3.8c8,3.1,14.5,8.3,19.6,14.8c6.3,7.5,11.1,15.9,14.2,25.2
		C1565,254.3,1567.3,266,1567.7,278.4L1567.7,278.4 M1541.5,274.6c-0.7-12.1-2.1-23.8-4.1-35.5c-1.4-7.5-3.5-14.8-7.3-21.7
		c-2.7-5.1-6.3-8.6-10.4-10.7c-4.5-2.1-9-2.7-13.8-2.1c-11.8,1-19.4,10-22.7,28c-3.5,17.6-3.8,43.1-1.4,76.9
		c0.7,11.8,2.1,23.2,4.5,34.5c1.4,7.5,3.8,15.2,7.3,22.1c2.7,5.5,6.3,9.4,10,11.4c4.1,2.4,8.3,3.1,13.1,2.7c5.5-0.3,10-3.5,13.8-9.4
		c4.5-7.3,7.3-14.8,8.6-23.2c2.4-11.1,3.8-22.1,3.8-33.5C1542.8,301.2,1542.5,288.1,1541.5,274.6L1541.5,274.6"/>
	<path class="st0" d="M650.9,553.2h-1c-4.1-0.3-8,1-11.1,3.8l-0.3,0.3c-0.3,0.3-0.7,0.7-1.4,1.4c-4.1,4.5-6.9,9.6-8.6,15.2
		c-2.4,7.5-4.1,14.8-5.1,22.7c-1.4,9-2.1,17.9-2.4,27.3c-0.3,4.8-0.3,10.7,0,16.6c0,6.3,0,12.4,0.3,19c0,6.5,0.3,12.8,0.3,18.6
		c0,5.8,0,11.1,0,15.5c-0.3,6.3-1,12.8-2.7,18.6c-1.4,5.5-3.8,10.7-7.3,14.8c-3.8,4.5-8.6,7.5-14.5,9.4c-6.3,2.1-13.8,3.1-23.5,2.7
		c-11.8,0-21.7-4.5-30-12.8c0,0,0,0-0.3-0.3c-3.8-3.8-6.5-8-8.3-12.8c-2.1-4.8-2.7-9.6-2.4-14.8c0.3-4.1,1.4-8,2.7-11.8
		c1.7-4.5,4.1-8.3,7.3-11.8c3.1-3.8,6.9-6.5,11.1-9c4.5-2.4,9-3.5,14.2-3.1c3.5,0,6.3,1.4,8.3,3.8l0,0c2.4,2.4,3.5,6.5,3.1,12.4
		c0,2.4-0.7,4.5-1.4,6.9c-0.7,2.4-1.7,4.8-3.1,7.3c-1,2.1-2.7,3.8-4.5,5.5c-1.4,1.4-2.7,2.1-4.8,2.1H565c-2.1,0-3.1-1-3.1-2.7
		c0-1.4,0.3-2.7,1-4.1c0.7-1.7,1.4-3.5,2.4-5.1c0.7-1.7,1.7-3.5,2.4-5.5c0.7-1.7,1-3.1,1.4-5.1c0-2.7-0.7-4.5-2.4-4.5
		c-1.4,0-3.1,1-5.1,3.1c-2.4,2.7-4.1,5.5-5.8,8.6c-2.1,3.8-3.8,7.5-5.1,11.8c-1.4,4.1-2.1,8.3-2.4,12.8c-0.3,6.3,1,11.4,4.8,16.6
		c3.5,4.8,9.6,7.3,19,7.5c4.1,0,7.5-1.7,10.4-6.3c3.1-5.1,5.5-10.7,6.5-16.9c1.7-7.5,3.1-15.5,3.8-23.5c0.7-8.6,1.4-17.2,1.7-25.9
		c0.3-11.1,0.3-23.2-0.3-35.9c-0.7-12.1-2.1-23.8-4.1-35.9c-1.4-9.6-4.5-19-9-27.6c-3.8-7.5-8.6-11.4-14.8-11.8V548
		c7.5,1.7,14.8,2.7,22.1,3.8c7.3,0.7,13.8,1.4,20,1.7c6.3,0.3,12.1,0.3,17.2,0c5.1,0,9.6-0.3,13.5-0.7c4.5-0.3,8.3-1,12.1-1.4v1.5"
		/>
	<path class="st0" d="M841,599.5c2.1-5.5,4.8-11.1,8-15.9c2.1-3.5,4.8-6.5,8-9c2.4-2.1,5.5-3.5,8.6-3.8c3.5-0.7,6.9-0.7,10.4-0.7
		c2.7,0,5.5,0.3,8.3,1c3.1,0.3,5.8,1.7,8.6,3.5c3.1,2.1,5.8,4.5,8,7.5c2.7,4.1,4.8,8.6,5.8,13.5c1.7,6.9,3.1,13.8,3.8,21.1
		c1,10,1,20.4,0.7,30.4c-0.3,7.3-1,15.2-1.7,24.2c-0.3,1.4-0.3,2.7-0.3,4.1v4.5c-0.3,5.8,0,11.4,0.3,17.2c0.3,5.1,1,10.4,2.4,15.5
		c1,4.1,2.4,8,4.8,11.8c1.4,2.4,3.1,3.8,5.5,4.5h0.3c0.7,0,1.4,0.3,1.7,0.3v2.7c-2.4-0.7-5.1-1.4-8-1.7c-2.7-0.3-5.8-1-9.4-1.4
		c-4.1-0.7-8.3-1-12.1-1c-4.5-0.3-9.4-0.3-14.5,0c-5.5,0.3-11.1,1-16.6,2.1v-2.7c3.5-0.7,6.3-3.1,9-8c3.1-5.8,5.5-11.8,6.9-18.3
		c2.1-8.3,3.8-16.6,4.8-24.9c1-9.4,2.1-18.6,2.4-28c0.3-9,0.3-17.6,0-25.9c-0.3-7.3-1-14.2-2.7-21.4c-1-5.1-2.7-10-5.1-14.5
		c-2.1-3.8-4.8-5.5-7.5-5.5c-11.1-0.3-19.4,6.9-24.2,22.5c-4.8,15.2-8,39-9.4,71.1c-0.3,5.5-0.3,11.8,0,18.6
		c0,6.5,0.7,13.1,1.7,19.4c0.7,5.1,2.4,10.4,4.8,15.2c2.1,4.1,5.1,6.3,8.6,6.5v2.7c-3.5-0.3-6.9-1-10.7-1.4c-3.5-0.3-7.3-1-11.4-1.4
		s-8.6-0.7-13.1-1c-4.5,0-9,0-13.5,0c-4.1,0-8.3,0.7-12.4,1.4v-2.7c3.5,0,6.5-1.4,9-3.8l0.3-0.3c0.3-0.3,1-1,1.4-1.7
		c3.1-4.5,5.1-9.4,6.3-14.8c1.7-6.9,2.7-13.8,3.1-21.1c0.7-8,1-15.9,1.4-24.4c0.3-9.6,0.3-20,0.3-30.4c0-10-0.7-19.6-2.1-29.3
		c-0.7-8-2.4-15.5-5.1-22.7c-2.4-6.3-5.5-9.4-9.6-10l1-3.8c3.1,1.7,6.5,2.7,10,3.5c3.5,0.7,6.5,1,10,1.4c3.1,0,6.3,0,9.4-0.3
		c2.7-0.3,5.5-0.7,8-1c2.7-0.7,5.1-1,7.5-1.7L841,599.5"/>
	<path class="st0" d="M1008.1,707.8h-0.3c-2.4-0.3-4.5-1.4-5.8-3.5c-2.1-2.1-2.7-4.1-2.7-6.9c0-0.3,0-0.3,0-0.7v-0.7
		c0-2.7,0.7-5.1,1.7-8c1-2.8,2.1-5.1,3.8-7.5c1.4-2.1,3.1-3.8,5.1-5.5c1.7-1.4,3.8-2.1,5.8-2.1c3.5,0,6.9,1,9.6,3.1
		c3.1,1.7,5.5,4.1,7.3,7.3c2.1,3.1,3.5,6.5,4.5,10.4c1,3.8,1.4,8,1.4,12.1c0,4.8-1,9.4-2.7,13.5c-1.7,4.5-4.1,8.6-7.5,11.8
		c-3.8,3.8-8,6.5-13.1,8.3c-5.8,2.1-12.1,3.1-18.6,2.7l-4.1-0.3c-5.1-0.3-10.4-1.7-15.2-3.8c-4.5-1.7-8.6-4.1-12.1-7.5
		c-3.5-3.5-5.8-7.5-7.5-12.1c-2.1-5.1-2.7-10.7-2.4-16.6c0.7-6.5,1.4-12.8,2.1-18.6c0.7-5.8,1.4-11.8,2.1-17.9
		c0.7-5.8,1.4-12.1,2.1-18.6c0.7-6.5,1-13.5,1.4-20.7c0.3-7.5,0.3-16.2,0.3-25.9c-1.4-0.7-2.4-1-3.8-1c-2.1-0.3-3.8-0.3-5.8-0.3
		c-2.4,0-4.5,0-6.9,0c-2.4,0-4.1,0-6.3,0.3c-2.1,0-4.1,0-6.5,0.3c5.5-2.4,11.4-4.5,17.2-5.8c5.5-1,10.4-2.7,15.2-5.5
		c5.5-3.1,9.6-6.9,13.1-12.1c4.1-5.5,7.5-13.8,10.7-25.2h3.8l-1.7,45.2c0.3,0.3,0.7,0.3,1,0.3h3.1c2.7,0,5.5,0,8.3-0.3
		c3.8-0.3,7.3-1,10.7-2.4c3.8-1.4,7.3-3.5,10.7-5.8c3.8-2.7,6.3-6.5,8-11.1c-0.3,2.7-0.7,5.5-1,8.3c-0.3,2.7-0.3,5.1-0.3,7.5
		c0,3.5,0,6.5,0.3,9.6c0.3,3.8,0.7,7.3,1,10.7c0.3,3.5,1,7.3,1.7,12.1h-0.7c-0.7-4.5-2.4-8.6-5.5-12.1c-2.7-3.1-5.8-5.5-9.6-7.3
		c-3.5-1.7-7.3-2.7-11.1-3.5c-3.1-0.7-6.5-1-9.6-1h-3.1c0,0,0,0-0.3,0l0,0h-1.4h-1.7c0,1.7,0,3.8,0,5.5l-0.3,5.8
		c-0.3,5.1-0.7,11.1-1,16.9c-0.3,5.8-1,12.1-1.4,17.9l-1.4,18.3c-0.3,6.3-0.7,12.1-1,17.6c-0.3,6.5-0.3,13.1,0,19
		c0,5.1,0.7,10.4,1.7,15.5c0.7,3.8,2.4,7.3,4.8,10.4c1.7,2.1,3.8,3.5,6.5,3.8h0.3c0.3,0,0.7,0,1,0c3.1,0.3,5.8-0.7,8-2.7
		c0,0,0.3,0,0.3-0.3l0.3-0.3c2.7-2.4,4.8-5.1,6.3-8.6c1.7-3.5,3.1-7.3,3.8-11.1c0.7-3.8,1.4-7.3,1.4-11.1c0.3-9.4-1.4-14.2-5.5-14.5
		c-1.7,0-3.1,0.3-4.5,1.4c-2.7,2.1-4.5,4.8-5.5,8c-0.3,1.4-0.7,3.1-0.7,4.8c0,1.4,0,2.4,0.7,3.1l0,0l0,0c1,1,2.4,2.1,3.8,2.4
		L1008.1,707.8"/>
	<path class="st0" d="M1158.6,662c-0.3,11.8-2.4,23.5-5.8,34.8c-3.1,10.7-7.5,20.7-13.8,30c-4.8,8.3-11.1,15.2-18.6,21.1
		c-6.9,5.1-14.2,8-21.7,7.5c-8-0.3-14.8-2.7-21.1-7.5c-6.9-5.1-12.8-11.8-16.9-19.4c-5.1-8.6-8.6-17.9-10.7-28
		c-2.7-11.1-3.8-22.1-3.1-33.5c0.3-11.8,2.1-22.7,5.8-33.8c3.1-10,7.5-19.4,13.5-27.6c4.8-7.5,11.1-13.8,18.6-18.6
		c6.5-4.8,13.8-6.9,22.1-6.3c7.5,0,14.8,2.1,21.7,5.8c6.9,3.8,12.8,9.4,16.9,15.9c5.1,7.5,8.6,16.2,10.7,25.2
		C1158.6,639.1,1159.3,650.5,1158.6,662L1158.6,662 M1134.4,656c0.7-11.4,0.7-22.5-0.3-33.8c-0.3-7.3-1.7-14.2-4.5-21.1
		c-1.7-4.5-4.5-8.3-8.6-11.1c-3.8-2.4-8.3-3.5-12.8-3.5c-11.1-0.3-19.4,7.5-24.2,23.8c-4.8,16.2-8.3,40.4-9.4,72.1
		c-0.7,11.1-0.3,21.7,0.3,32.8c0.3,7.3,1.7,14.5,4.5,21.4c1.4,4.8,4.1,8.6,8,11.8c3.5,2.4,7.5,3.8,11.8,3.8
		c5.1,0.3,9.6-2.1,13.8-7.3c4.8-6.3,8.3-13.1,10.7-20.7c3.5-10,5.8-20.4,7.3-30.7C1132.8,680.9,1134.2,668.6,1134.4,656L1134.4,656"
		/>
	<path class="st0" d="M1201.4,726.1c1,0.7,2.4,1,3.8,1.4c0.7,0,1.4,0,1.7-0.3l0,0l0.3-0.3c0.7-0.7,1-1.7,1-2.4v-0.3
		c0-1.4-0.3-2.4-1-3.8c-0.7-1.4-1.7-2.7-3.1-3.8c-1.4-1.4-2.7-2.4-4.5-3.5c-1.4-1-3.1-1.4-5.1-1.4c-1.4,0-2.4,0.3-3.5,1h-0.3l0,0
		l0,0c-1.4,1.4-1.7,3.5-1.7,5.1l0,0v0.7c0,3.8,0.7,7.3,1.7,10.7c1,3.8,2.7,6.9,4.8,10c2.1,3.2,4.8,5.5,8,7.3
		c3.1,2.1,6.5,3.1,10.4,3.1c4.1,0.3,8-0.7,11.4-2.4c3.8-1.4,6.9-3.8,10-6.3c2.7-2.4,5.1-5.1,6.9-8.3c1.7-2.4,2.7-5.5,2.7-8.6
		c0-5.1-1.4-10-4.5-14.5c-3.1-4.8-8.3-8.6-15.2-11.8c-8.3-3.5-16.6-7.3-24.2-11.8c-5.8-3.5-11.1-7.5-15.9-12.1
		c-3.8-3.8-6.9-8.3-8.6-13.5c-1.7-5.1-2.7-10.4-2.1-15.9c0-6.3,1.4-11.8,3.8-17.2c4.1-9.4,11.1-15.5,20.4-19c0.3,0,0.7-0.3,1-0.3
		s0.7-0.3,0.7-0.3c4.8-1.7,9.6-2.4,14.8-2.1c5.8,0,11.8,1.4,16.9,4.1c5.8,2.4,10.7,6.3,14.5,11.1c0.3,0.3,0.7,0.3,1,0.3l0,0l0,0l0,0
		h0.3c0,0,0.3,0,0.3-0.3c0,0,0.3,0,0.3-0.3l0.3-0.3l0.3-0.3l0.3-0.3c1.4-1.4,2.4-2.7,3.8-4.5c1.7-2.1,3.5-4.1,4.8-6.5l1.7,2.1
		c-1.4,2.4-2.4,4.8-3.5,7.5c-1,3.1-1.7,6.5-2.4,9.6c-0.7,4.5-1,9.4-1.4,13.8c0,2.7,0,5.5,0,8.3c0,2.7,0.3,5.8,0.3,9.4
		c0,0.3,0,0.7,0,1c0,0.3,0,0.7,0,1v0.3c0,0,0,0,0,0.3l0,0l0,0l0,0v0.3l0,0l0,0l0,0l0,0h-0.3l0,0h-2.1c-4.5-16.9-9.6-30-15.5-38.6
		c-4.1-6.9-10-11.1-17.9-13.1c-0.3,0-0.3,0-0.7,0c-2.1-0.3-4.1-0.7-6.3-0.7c-4.8-0.3-9.4,1-13.1,4.5l-0.3,0.3
		c-0.3,0.3-1,0.7-1.4,1.4c-4.5,4.5-6.5,10-6.5,16.2l0,0c-0.3,4.1,1,8,3.8,11.1l0.3,0.3c0.3,0.3,0.7,0.7,1.4,1
		c3.8,3.8,10.4,7.3,19.4,10.7c8,3.1,15.5,6.5,23.2,10.7c5.5,3.1,10.7,6.9,14.8,11.4c3.8,3.8,6.5,8.3,8,13.1
		c1.7,5.1,2.4,10.4,2.1,15.9c0,7.5-2.1,14.5-5.8,21.1c-3.5,5.8-8,11.1-13.8,15.2c-5.1,4.1-11.1,7.3-17.6,9.4
		c-5.8,2.1-11.8,3.1-17.6,2.7c-4.8,0-9.4-1-13.5-3.1c-4.5-1.7-8.6-4.1-12.4-7.3c-3.8-2.7-6.5-6.3-9.4-10c-2.4-3.5-3.5-7.3-3.1-11.4
		c0-3.5,1-6.5,2.7-9.4c1.7-2.4,3.8-4.5,6.5-6.3c2.7-1.7,5.5-2.7,8.3-3.1c2.7-0.7,5.8-1,8.6-0.7c5.1,0,9.6,1.7,13.1,5.1
		c3.5,3.1,4.8,8,4.5,14.5c0,2.1-0.7,3.5-1.7,5.1v0.3l-0.3,0.3c-1.4,1.4-3.1,2.1-5.1,1.7l0,0c-1,0-1.7-0.3-2.7-0.7
		c-1-0.3-1.7-1-2.4-1.7L1201.4,726.1"/>
	<path class="st1" d="M860.8,279.5c-1.7-0.7-3.8-0.7-5.8-0.7c-3.8,0.3-5.5,2.4-5.1,5.8c0.3,2.1,1,3.8,2.1,5.5
		c1.4,2.1,2.7,3.8,4.5,5.5c1.7,1.7,3.8,3.1,6.3,4.1c2.4,1,4.8,1.4,7.3,1.4c1.7,0,3.1-1.4,4.1-3.8c1-2.4,1.4-6.3,0.7-12.1
		c-0.7-4.5-1.7-9-4.1-13.1c-2.4-5.1-5.5-10-9-14.5c-3.5-4.5-7.5-8.3-12.4-11.4c-4.5-3.1-9-4.1-14.2-3.8c-4.8,0.3-9,2.4-12.4,6.3
		l-0.3,0.3c-3.8,4.8-6.5,10.7-8.3,16.6c-2.4,8.3-3.5,16.9-3.8,25.5c-0.3,11.1,0,22.1,0.7,33.1c1,14.8,3.1,30,5.5,44.5
		c1.7,10,4.5,20,8.6,29.3c3.5,7.5,7.5,12.8,12.4,15.9c5.1,3.1,11.1,4.5,16.9,3.8c13.8-1,23.8-7.5,30-19.4c6.3-11.8,10-29,11.1-52.2
		l4.1-0.3c-0.7,25.5-4.8,45.2-12.4,59c-7.5,13.8-20,21.4-37.3,22.7c-9,0.7-17.6-1.4-25.5-5.8c-8.6-4.8-16.2-11.1-22.5-19
		c-7.3-8.6-12.8-18.3-16.9-28.7c-4.8-11.1-7.5-22.7-8.3-34.8c-1.4-12.8-0.3-25.5,2.4-38.3c2.4-11.4,6.3-21.7,12.4-31.7
		c5.1-9,12.1-16.2,20.7-22.1c8-5.8,16.9-9,26.9-9.6c6.9-0.7,13.5,0,20.4,1.7c6.3,1.7,12.1,4.5,17.2,8.3s9.4,8.3,12.4,13.8
		s5.1,11.4,5.5,17.9v1.7c0.3,5.5,0,10.7-2.1,15.9c-1.4,3.8-3.5,6.9-6.3,9.6c-2.4,2.4-5.1,4.1-8.3,5.1c-2.7,1-5.1,1.4-8,1.7
		c-3.5,0-6.5-0.7-9.6-2.1c-3.5-1.7-6.5-4.1-9.4-6.5c-3.1-2.7-5.5-5.8-7.5-9.4c-2.1-3.1-3.1-6.5-3.5-10.4c-0.3-3.8,0.7-7.3,3.1-10.4
		c1.4-1.7,3.5-2.7,5.8-2.7c0,0,0,0,0.3,0c2.1,0,4.1,0,6.3,1c2.1,0.7,4.1,1.7,5.5,3.1L860.8,279.5"/>
</g>
<g transform="matrix(1.0, 0.0, 0.0, 1.0, 158.25, 96.25)">
	<path class="st2" d="M773.8,256.6c-4.1-11.1-3.8-22.1,1.4-33.1c5.1-10.7,13.5-18.3,24.9-22.5c11.4-4.2,22.5-3.8,33.5,1
		c11,4.9,18.6,13.1,23.1,24.2L773.8,256.6"/>
	<path class="st3" d="M765.4,276l-2.4-4.1c-3.8-7.3-5.8-14.8-6.5-22.7c-0.7-8,0.3-15.5,2.7-23.5c2.4-7.5,6.3-14.5,11.4-20.7
		c5.1-6.3,11.4-11.1,18.6-14.5l7.5,14.8c-5.1,2.7-9.6,6.3-13.5,10.7c-3.8,4.5-6.5,9.4-8.3,14.8c-1.7,5.5-2.4,11.4-2.1,17.2
		s2.1,11.4,4.8,16.6c2.7,5.1,6.3,9.6,10.7,13.1c4.5,3.8,9.4,6.5,14.8,8.6c5.5,1.7,11.4,2.4,16.9,2.1c5.5-0.3,11.4-2.1,16.6-4.8
		l7.5,14.8c-7.3,3.8-14.8,5.8-22.7,6.5c-8,0.7-15.9-0.3-23.5-2.7c-6.9-2.1-13.1-5.5-18.6-10C774.1,287.3,769.3,282.1,765.4,276"/>
	<path class="st4" d="M818.3,300.4c5.5,0,10.7-0.7,15.5-2.7s9.4-4.8,13.5-8.6c3.8-3.8,6.9-8,9.4-13.1c2.1-4.8,3.1-10,3.1-15.5
		l15.5,0.3c-0.3,7.5-1.7,14.8-4.5,21.7c-3.1,6.9-7.3,12.8-12.4,17.9c-4.8,4.8-10.4,8.3-16.2,11.1c-6.3,2.7-12.4,4.5-19.4,4.8h-4.5
		v-16"/>
</g>
<g transform="matrix(1.0, 0.0, 0.0, 1.0, 56.4, 49.9)">
	<path class="st5" d="M674.4,542.1c9.4,4.9,17,12.4,22.9,22.2c5.7,9.4,9,19.7,10.1,31c1,11.5-0.4,22-4.5,31.8
		c-4.4,10.5-11.2,18.7-20.5,24.5c-4.5,2.8-9.2,4.7-14.3,5.7l-15.4,0.5"/>
	<path class="st6" d="M673,665.1c-18.2,3.1-33.7-3.3-46.4-19.2c-5.6-6.9-9.7-14.8-12.5-23.7c-2.8-8.8-3.9-17.6-3.3-26.2
		c0.7-12.2,4.6-23.2,12-33.3"/>
	<path class="st4" d="M700.4,658c2.2,0,4.2,0.8,5.7,2.4c1.6,1.6,2.4,3.5,2.4,5.7c0,2.2-0.8,4.2-2.4,5.7c-1.5,1.6-3.4,2.4-5.7,2.4
		c-2.2,0-4.1-0.8-5.7-2.4c-1.6-1.5-2.4-3.4-2.4-5.7s0.8-4.1,2.4-5.7C696.3,658.8,698.2,658,700.4,658"/>
	<path class="st4" d="M716.9,642.2c2.2,0,4.1,0.8,5.7,2.4c1.6,1.6,2.4,3.5,2.4,5.7c0,2.2-0.8,4.2-2.4,5.7c-1.6,1.6-3.5,2.4-5.7,2.4
		c-2.1,0-4.1-0.8-5.7-2.4c-1.6-1.6-2.4-3.5-2.4-5.7c0-2.2,0.8-4.1,2.4-5.7C712.8,642.9,714.6,642.2,716.9,642.2"/>
	<path class="st4" d="M726.2,620.8c2.2,0,4.2,0.8,5.7,2.4c1.6,1.6,2.4,3.5,2.4,5.7c0,2.1-0.8,4.1-2.4,5.7c-1.6,1.6-3.5,2.4-5.7,2.4
		c-2.2,0-4.1-0.8-5.7-2.4c-1.6-1.5-2.4-3.4-2.4-5.7s0.8-4.1,2.4-5.7C722.1,621.7,724,620.8,726.2,620.8"/>
	<path class="st7" d="M676.4,574.9l21.9-31.1l31.1,21.9L676.4,574.9"/>
</g>
</svg>
