<?xml version="1.0" encoding="utf-8"?>
<!-- Generator: Adobe Illustrator 25.1.0, SVG Export Plug-In . SVG Version: 6.00 Build 0)  -->
<svg version="1.1" id="Capa_1" xmlns="http://www.w3.org/2000/svg" xmlns:xlink="http://www.w3.org/1999/xlink" x="0px" y="0px"
	 viewBox="0 0 1085 100" style="enable-background:new 0 0 1085 100;" xml:space="preserve">
<style type="text/css">
	.st0{fill:#4254F4;}
	.st1{fill:#FFFFFF;}
</style>
<g>
	<path class="st0" d="M547.9,24.9h11.3l1.9,7.7h0.9c4.8-10.5,27.1-12.7,32.8,0.6h0.8c2.9-4.5,7.2-9.4,17-9.4
		c27-1.5,18,36.4,19.5,53.5h-15.5v-31c0-9.2-3.5-11.5-8.9-11.5c-5.8,0-9.1,3.8-10.2,7.3v35.2h-15.4v-32c1.2-13.5-14.2-12.7-18.8-4.2
		v36.2H548L547.9,24.9L547.9,24.9z"/>
	<path class="st0" d="M665.7,23.8c36.8-2.4,37,57,0,54.6C628.6,80.9,628.8,21.4,665.7,23.8z M677.6,51.2c1.3-22.3-25.2-22.2-23.9,0
		C652.4,73.2,678.9,73.3,677.6,51.2z"/>
	<path class="st0" d="M750.2,77.3h-11.7l-2.1-5.8h-0.6C723.2,84.9,695.4,79,697,51c-1-26.9,23.8-33.8,37.1-21.2h0.6V0.3h15.4
		L750.2,77.3L750.2,77.3z M734.8,39.5c-29.6-23.7-29,47,0,23.4V39.5z"/>
	<path class="st0" d="M784.1,23.8c20.8-0.1,27.7,13.5,24.5,29.1h-36.9c-1.8,18.7,23.4,18.8,22.6,6.3l14.3,0.3
		c0.8,7.9-2.1,18.4-24.8,18.8C748.1,81.2,746.7,22,784.1,23.8L784.1,23.8z M795,44.2c1.8-13.7-23.2-13.7-22.9,0H795z"/>
	<path class="st0" d="M831.4,77.3h-15.5V24.9h11.3l1.9,7.3h0.8c12.2-17.4,34.2-6.4,27.7,15.1l-13.3-0.8c3.4-12.5-8.9-15.5-13-4.9
		V77.3L831.4,77.3z"/>
	<path class="st0" d="M862.5,44.2c-6.3-27.4,50.9-26.9,47.5-1.3v21.3c-0.1,3.6,2.7,3.3,5,2.6l0.6,10.3c-7.2,2.8-19.2,1.7-18.5-6.9
		h-0.6c-31.1,29.1-63.9-24.4-1.6-23.8c3.5-16.5-22.3-15-18.6-3L862.5,44.2L862.5,44.2z M882,67.8c4.9,0,10-2.3,13-5.8v-7.7
		c-15.7,0.3-20.1,3.5-20.1,8C874.8,66.2,877.4,67.8,882,67.8z"/>
	<path class="st0" d="M970.8,77.3h-11.7l-2.1-5.8h-0.6C943.9,84.9,916.1,79,917.6,51c-1-26.9,23.8-33.8,37.1-21.2h0.6V0.3h15.4
		L970.8,77.3L970.8,77.3z M955.4,39.5c-29.6-23.7-29,47,0,23.4V39.5z"/>
	<path class="st0" d="M1004.9,23.8c36.9-2.4,37,57,0,54.6C967.8,80.9,968,21.4,1004.9,23.8z M1016.8,51.2c1.3-22.3-25.2-22.2-23.9,0
		C991.6,73.2,1018,73.3,1016.8,51.2z"/>
	<path class="st0" d="M1054.6,77.3h-15.5V24.9h11.3l1.9,7.3h0.8c12.2-17.4,34.2-6.4,27.7,15.1l-13.3-0.8c3.4-12.5-8.9-15.5-12.9-4.9
		V77.3L1054.6,77.3z"/>
</g>
<path class="st1" d="M37.6,79C35.5,98,17.8,103.2,3,98.2l3.8-12.7c6.2,2.1,10.5,2.7,12-7.2l9.3-53.6h19L37.6,79L37.6,79z M32.1,2.7
	H51l-2.6,14.4H29.5C29.5,17.1,32.1,2.7,32.1,2.7z"/>
<path class="st1" d="M46.1,57c-1.7-26.8,26.8-45,40.4-25.2h0.6l3.8-7h14.2l-6.2,35.7c-1.4,4.7,1.4,6.2,5.6,4.2l-1.7,12.1
	c-6.8,2-22.4,4.1-22.5-5.8h-0.5C69.9,82.5,45.3,82.3,46.1,57z M83.3,41c-6.4-10.7-17.4,0.3-16.9,15c-0.4,11.2,8.7,11.3,13.3,5.3
	L83.3,41L83.3,41z"/>
<path class="st1" d="M138,23.6c22,0.9,25.7,11.5,21.9,22.2L141.3,46c3.9-16.3-16.5-10.7-15.2,10.6c-0.7,12.3,14.1,10.6,13.6-0.6
	l18.5,0.1c4.7,27.3-52.6,31.8-51.6,1.1C106.6,39.5,115.9,23.6,138,23.6L138,23.6z"/>
<path class="st1" d="M212.3,64.8c1,0,2.1-0.2,3.1-0.5l-2.2,12.6c-22.6,6.8-20.2-8.2-26.2-21.3h-5.1l-3.8,21.7h-19L172.8,0h19
	l-7.7,43.6l4.1-0.4c2.3-2.2,11.4-16.7,13.5-18.5h20l-0.4,2.1c-2.3,1.9-14.4,18.9-17.6,22.5C205.3,50.5,207.9,65.1,212.3,64.8
	L212.3,64.8z"/>
<path class="st1" d="M230.6,0h18.9l-5.4,29.9h0.5c10-11.2,31.3-7.9,31,14.3c0.7,31.6-27.8,43.6-40.6,27h-0.5l-3.6,6.2h-14.2L230.6,0
	z M238.5,61.7c7.1,9.4,18.1-0.2,17.8-15.6c0-7-3.4-9.2-6.8-9.2c-2.6,0-5.7,1.8-7.5,4.2L238.5,61.7z"/>
<path class="st1" d="M307.9,23.6c41.2-1.2,28.3,57.7-4.9,54.8C261.9,79.7,275,20.8,307.9,23.6z M314,45.2c0-5.7-2.5-8.4-6.3-8.4
	c-9.7-2.4-16.9,28.2-4.5,28.5C310,65.3,314,58.3,314,45.2z"/>
<path class="st1" d="M361.5,33.7c1,3.1,1.8,6,2.4,8.6h0.4c2.7-5.6,8.2-12.5,11.7-17.6h20.2l-0.3,1.8L376,50.3l5.9,11.7
	c2,3.6,4.9,2.9,7.5,1.9l-2.2,13c-18.2,5-21.1-1.9-24.5-18h-0.5c-2.6,5.9-8.5,13.2-12.1,18.5h-20.2l0.3-1.7l20.3-24.8L345.1,40
	c-1.7-3.5-5.1-3-7.8-1.9l2.4-12.9C349.3,22.7,359.5,21.6,361.5,33.7L361.5,33.7z"/>
<path class="st1" d="M398.1,59.6h20.6l-3.4,19h-20.6L398.1,59.6z"/>
<g>
	<path class="st1" d="M449.4,4.8l-10.5,74.8h-18.5l10.5-74.8C430.9,4.8,449.4,4.8,449.4,4.8z"/>
	<path class="st1" d="M468.6,80.8c-8,0-14-1.9-17.9-5.7c-3.9-3.8-5.9-9.1-5.9-16.1c0-2,0.1-4,0.4-6c1.2-8.3,4.4-14.7,9.6-19.5
		c5.3-4.7,12.3-7.1,21.1-7.1c3.5,0,6.5,0.4,9.2,1.1c2.7,0.8,4.9,1.8,6.6,3c1.7,1.3,3.2,2.8,4.3,4.7s1.9,3.8,2.4,5.8s0.7,4.3,0.7,6.7
		c0,1.3-0.2,3.3-0.5,6.1c-0.5,4.1-1.5,7.7-3,10.9c-1.4,3.2-3.3,6-5.7,8.4s-5.4,4.3-9,5.6C477.4,80.2,473.3,80.8,468.6,80.8z
		 M470,68.3c2.5,0,4.4-1,6-3.1c1.5-2.1,2.7-5.7,3.4-10.9c0.3-2,0.4-4.1,0.4-6.2c0-3.1-0.5-5.4-1.5-6.8c-1-1.4-2.5-2.1-4.5-2.1
		c-5.2,0-8.4,4.8-9.6,14.3c-0.3,2-0.4,4-0.4,5.8C463.8,65.3,465.9,68.3,470,68.3z"/>
	<path class="st1" d="M526.9,4.8l-10.5,74.8h-18.5l10.5-74.8C508.4,4.8,526.9,4.8,526.9,4.8z"/>
</g>
</svg>
